# xmcd
#
# Track frame offsets:
#	150
#	15813
#	34799
#	51075
#	70698
#	89909
#	104896
#	122054
#	134986
#	154068
#
# Disc length: 2264 seconds
#
# Revision: 0
# Processed by: cddbd v1.5.2PL0 Copyright (c) Steve Scherf et al.
# Submitted via: EasyCDDAExtractor 11.0.3.1
#
DISCID=8d08d60a
DTITLE=Heidi Newfield - What Am I Waiting For
DYEAR=2008
DGENRE=Country
TTITLE0=Can't Let Go
TTITLE1=When Tears Fall Down
TTITLE2=Johnny And June
TTITLE3=What Am I Waiting For
TTITLE4=Love Her And Lose Me
TTITLE5=Cry Cry ('till The Sun Shines)
TTITLE6=Wreck You
TTITLE7=Nothin' Burns Like A Memory
TTITLE8=All I Wanna Do
TTITLE9=Knocked Up
EXTD=
EXTT0=
EXTT1=
EXTT2=
EXTT3=
EXTT4=
EXTT5=
EXTT6=
EXTT7=
EXTT8=
EXTT9=
PLAYORDER=
